<?xml version="1.0" encoding="utf-8" ?>
<svg xmlns="http://www.w3.org/2000/svg" xmlns:xlink="http://www.w3.org/1999/xlink" width="176" height="68">
	<path fill="#0D0D0D" transform="scale(0.0667678 0.0664062)" d="M1537.27 347.438C1545.56 345.494 1654.05 349.489 1657.78 351.257C1678.47 405.094 1578.51 409.155 1551.48 388.411C1538.65 378.56 1539.16 361.933 1537.27 347.438Z"/>
	<path fill="#0D0D0D" transform="scale(0.0667678 0.0664062)" d="M1948.87 358.66L1951.55 353.198C1967.85 345.674 2017.31 353.804 2038.64 350.929C2048.96 349.536 2082.83 327.996 2076.86 347.438C2103.64 405.072 2003.48 407.781 1971.34 394.516C1952.6 386.785 1955.49 374.025 1948.87 358.66Z"/>
	<path fill="#0D0D0D" transform="scale(0.0667678 0.0664062)" d="M988.7 507.845C1016.51 506.578 1044.87 507.754 1072.73 507.768L1239.07 507.845C1239.88 544.762 1239.13 581.847 1239.07 618.781C1210.88 618.181 1182.72 619.014 1154.54 618.66C1038.51 617.213 1053.46 615.431 1053.52 722.16L1053.65 886.436L1053.65 1011.82C1012.32 1011.75 971.018 1012.52 929.69 1011.82C928.49 980.515 929.618 948.858 929.636 917.51L929.57 615.799C929.516 566.416 920.246 509.427 988.7 507.845Z"/>
	<path fill="#0D0D0D" transform="scale(0.0667678 0.0664062)" d="M999.534 129.689C1190.76 128.776 1315.14 146.005 1493.78 199.54C1473.28 242.956 1480.31 270.934 1493.78 314.359C1438.84 263.334 1259.8 233.426 1182.53 224.671C1014.31 205.616 783.987 208.359 644.093 320.109C674.95 332.944 708.143 338.595 739.005 351.257C859.066 372.248 970.96 405.573 1097.07 423.759C1070.38 426.906 1041.99 424.593 1015.09 423.863C889.407 420.445 590.499 399.552 470.694 351.257C483.042 337.996 494.759 324.141 506.845 310.64C632.929 169.756 820.918 139.478 999.534 129.689Z"/>
	<path fill="#0D0D0D" transform="scale(0.0667678 0.0664062)" d="M2021.24 507.845L2146.7 507.845C2149.75 514.796 2148.66 614.678 2146.7 618.781C2154.21 633.711 2146.9 663.981 2146.81 680.833L2146.7 809.232C2146.81 928.143 2143.17 1001.27 2004.85 1017.25C1917.71 1027.32 1781.83 1022.45 1754.47 918.376C1745.32 883.549 1748.76 845.533 1748.77 809.841L1748.56 600.043C1748.56 571.052 1752.16 537.512 1748.9 509.092L1748.74 507.845C1786.12 504.568 1837.16 506.855 1874.93 507.845C1879.53 520.814 1874.76 543.742 1874.8 557.965L1874.93 753.076C1874.95 797.866 1858.77 882.786 1911.93 903.639C1954.26 920.246 2018 906.581 2020.96 852.55C2022.56 823.138 2021.2 793.059 2021.22 763.552L2021.24 587.346C2021.24 575.561 2024.4 514.818 2021.24 507.845Z"/>
	<path fill="#D97904" transform="scale(0.0667678 0.0664062)" d="M655.711 500.023C709.729 490.456 773.62 509.336 812.141 548.014C876.915 613.04 863.649 706.306 863.641 790.052L863.641 1011.82L707.264 1011.89C630.832 1011.95 553.586 1017.74 502.186 948.415C463.711 891.796 471.291 805.804 519.515 757.476C582.331 694.518 658.234 702.373 739.005 702.604C733.588 614.988 675.603 587.335 593.133 615.42C522.871 639.354 541.087 628.18 516.166 542.336L516.639 541.879C547.023 512.015 614.707 500.263 655.711 500.023ZM689.823 793.503C595.158 795.572 598.03 902.923 673.323 919.572C694.956 923.94 717.247 922.271 739.005 919.572L739.005 793.503C723.894 791.673 704.51 788.223 689.823 793.503Z"/>
	<path fill="#0D0D0D" transform="scale(0.0667678 0.0664062)" d="M1298.51 314.359L1427.22 314.359L1427.22 507.845C1648.43 508.895 1688.03 491.533 1687.51 752.363C1687.47 774.957 1690.93 1003.19 1687.53 1011.82C1656.46 1015.88 1591.08 1012.41 1557.66 1011.82C1564.57 998.965 1557.77 971.071 1557.73 956.29L1557.72 805.8C1557.79 790.241 1564.45 762.976 1557.66 749.13C1562.66 739.465 1559.06 639.089 1549.98 629.926C1532.19 611.93 1453.85 618.65 1427.22 618.781C1424.77 749.609 1427.32 880.93 1427.22 1011.82C1384.55 1013.38 1341.24 1011.84 1298.51 1011.82L1298.51 314.359Z"/>
	<path fill="#0D0D0D" transform="scale(0.0667678 0.0664062)" d="M208.008 308.888L211.426 308.611C426.261 293.223 464.915 550.487 415.51 560.573C252.039 593.949 332.049 491.136 285.472 442.68C256.737 412.787 192.164 412.235 162.835 441.412C129.794 474.283 142.37 562.235 142.424 604.512L142.221 816.239C142.439 873.051 167.741 905.828 226.941 904.802C345.758 902.748 289.408 778.699 317.318 750.229L318.413 749.13C336.131 738.479 414.077 740.488 425.59 749.934C438.884 760.834 434.316 788.849 434.498 803.87C435.202 861.936 426.596 907.867 388.754 954.09C319.463 1038.72 167.986 1046.34 85.5017 977.904C-10.6623 898.115 13.0403 763.754 12.8948 653.114L12.6802 552.772C12.4655 421.681 57.1349 321.374 208.008 308.888Z"/>
	<path fill="#D97904" transform="scale(0.0667678 0.0664062)" d="M1523.44 137.114C1539.63 97.0259 1556.3 35.2438 1599.79 17.0294C1648.14 -3.22073 1906.8 -6.50677 1954.04 13.645C1984.49 26.6324 2049.56 128.853 2049.6 157.452C2105.82 176.906 2108.83 266.726 2094.29 311.081C2091.07 320.931 2082.18 333.642 2076.86 347.438C2082.83 327.996 2048.96 349.536 2038.64 350.929C2017.31 353.804 1967.85 345.674 1951.55 353.198L1948.87 358.66C1956.22 342.177 1885.99 351.26 1871.94 351.282L1718.14 351.151C1699.93 351.111 1674.92 347.914 1657.78 351.257C1654.05 349.489 1545.56 345.494 1537.27 347.438C1545.04 299.216 1467.83 268.672 1543.69 160.898C1544.44 159.812 1544.73 158.731 1544.96 157.452C1523.97 157.463 1460.61 162.477 1446.63 149.088C1420.33 123.905 1494.36 76.413 1523.44 137.114ZM1739.51 32.2148C1698.93 35.9309 1621.13 30.0368 1593.73 63.504C1575.74 85.4619 1563.45 141.955 1551.15 152.746C1638.79 146.129 1730.18 130.818 1818.24 137.114C1881.79 136.708 1946.44 139.449 2008.65 152.746C2011.01 135.562 1981.87 76.7174 1970.98 62.0241C1937.72 17.1862 1789.23 32.1747 1739.51 32.2148ZM1902.83 232.695C1838.51 242.171 1775.81 236.12 1711.74 239.967C1721.56 247.793 1730.16 258.16 1739.51 266.795C1767.29 289.609 1811.62 282.704 1845.22 279.339C1893.94 274.457 1920.2 231.296 1902.83 232.695ZM2031.95 190.429C1989.24 203.493 1901.78 274.969 1963.94 267.438L1969.03 266.795C1991.29 264.057 2046.72 259.702 2060.58 241.236C2073.39 224.157 2059.84 185.171 2031.95 190.429ZM1574.05 190.429C1526.61 258.774 1642.27 263.163 1677.99 266.795C1723.94 273.624 1617.16 178.821 1574.05 190.429Z"/>
	<path fill="#0D0D0D" transform="scale(0.0667678 0.0664062)" d="M2210.75 314.359C2216.35 313.164 2288.31 311.245 2302.67 311.582C2356.29 312.836 2340.07 399.811 2340.49 434.258C2340.69 452.243 2347.94 492.82 2340.74 507.845C2444.97 508.157 2597.9 486.576 2617.9 628.613C2626.24 688.006 2641.8 930.08 2572.09 969.996C2558.03 1025.07 2362.13 1016.18 2322.69 1016.07C2231.49 1015.81 2210.64 1026.9 2210.66 933.029L2211.02 366.128C2211.24 349.024 2213.75 331.32 2210.75 314.359ZM2340.74 618.781C2342.74 641.9 2340.78 666.25 2340.74 689.537L2340.78 836.701C2340.81 848.721 2344.2 893.098 2340.74 900.421C2370.68 900.581 2451.23 906.785 2472.88 888.973L2473.95 886.436C2504.2 869.252 2492.96 691.569 2489.58 658.579C2483.48 599.294 2386.91 617.534 2340.74 618.781Z"/>
</svg>
