<?xml version="1.0" encoding="utf-8" ?>
<svg xmlns="http://www.w3.org/2000/svg" xmlns:xlink="http://www.w3.org/1999/xlink" width="176" height="99">
	<path fill="#0D0D0D" transform="matrix(0.0964912 0 0 0.0966797 -0.00012207 0)" d="M1033.11 417.156C1037.67 416.089 1097.31 418.281 1099.36 419.251C1110.73 448.791 1055.78 451.019 1040.92 439.637C1033.87 434.232 1034.15 425.109 1033.11 417.156Z"/>
	<path fill="#0D0D0D" transform="matrix(0.0964912 0 0 0.0966797 -0.00012207 0)" d="M1259.38 423.313L1260.85 420.316C1269.81 416.188 1297 420.649 1308.73 419.071C1314.4 418.307 1333.02 406.488 1329.74 417.156C1344.46 448.779 1289.4 450.265 1271.73 442.987C1261.43 438.745 1263.02 431.744 1259.38 423.313Z"/>
	<path fill="#0D0D0D" transform="matrix(0.0964912 0 0 0.0966797 -0.00012207 0)" d="M731.546 505.169C746.835 504.474 762.423 505.119 777.742 505.127L869.182 505.169C869.625 525.425 869.214 545.773 869.182 566.038C853.686 565.709 838.203 566.166 822.711 565.972C758.926 565.178 767.146 564.2 767.18 622.761L767.252 712.897L767.252 781.691C744.533 781.655 721.826 782.076 699.107 781.691C698.447 764.517 699.067 747.147 699.077 729.947L699.041 564.402C699.011 537.306 693.915 506.037 731.546 505.169Z"/>
	<path fill="#0D0D0D" transform="matrix(0.0964912 0 0 0.0966797 -0.00012207 0)" d="M737.502 297.68C842.624 297.179 910.998 306.632 1009.2 336.006C997.933 359.828 1001.8 375.179 1009.2 399.006C978.998 371.009 880.58 354.599 838.098 349.795C745.626 339.34 619.01 340.845 542.106 402.161C559.069 409.203 577.316 412.304 594.282 419.251C660.283 430.769 721.794 449.054 791.118 459.032C776.447 460.759 760.839 459.49 746.053 459.089C676.962 457.214 512.644 445.75 446.784 419.251C453.572 411.975 460.013 404.373 466.657 396.965C535.969 319.664 639.312 303.051 737.502 297.68Z"/>
	<path fill="#0D0D0D" transform="matrix(0.0964912 0 0 0.0966797 -0.00012207 0)" d="M1299.16 505.169L1368.13 505.169C1369.81 508.983 1369.21 563.787 1368.13 566.038C1372.26 574.23 1368.24 590.839 1368.19 600.085L1368.13 670.536C1368.19 735.781 1366.19 775.907 1290.15 784.675C1242.25 790.198 1167.55 787.528 1152.51 730.422C1147.48 711.313 1149.37 690.454 1149.38 670.87L1149.26 555.757C1149.26 539.85 1151.24 521.447 1149.45 505.853L1149.36 505.169C1169.91 503.371 1197.97 504.626 1218.73 505.169C1221.26 512.285 1218.64 524.865 1218.66 532.669L1218.73 639.724C1218.74 664.3 1209.85 710.894 1239.07 722.336C1262.34 731.448 1297.38 723.95 1299.01 694.304C1299.89 678.166 1299.14 661.662 1299.15 645.472L1299.16 548.79C1299.16 542.324 1300.9 508.995 1299.16 505.169Z"/>
	<path fill="#D97904" transform="matrix(0.0964912 0 0 0.0966797 -0.00012207 0)" d="M548.493 500.877C578.188 495.628 613.311 505.987 634.487 527.209C670.095 562.888 662.802 614.062 662.798 660.012L662.798 781.691L576.833 781.732C534.816 781.764 492.352 784.941 464.096 746.904C442.945 715.838 447.112 668.655 473.622 642.138C508.154 607.594 549.88 611.904 594.282 612.031C591.304 563.957 559.428 548.784 514.092 564.194C475.467 577.326 485.481 571.195 471.781 524.094L472.041 523.843C488.744 507.457 525.952 501.009 548.493 500.877ZM567.245 661.906C515.205 663.041 516.784 721.943 558.175 731.078C570.067 733.475 582.321 732.559 594.282 731.078L594.282 661.906C585.975 660.902 575.319 659.009 567.245 661.906Z"/>
	<path fill="#0D0D0D" transform="matrix(0.0964912 0 0 0.0966797 -0.00012207 0)" d="M901.859 399.006L972.611 399.006L972.611 505.169C1094.22 505.745 1115.99 496.219 1115.7 639.333C1115.68 651.73 1117.58 776.956 1115.71 781.691C1098.63 783.919 1062.69 782.018 1044.32 781.691C1048.12 774.64 1044.38 759.335 1044.36 751.225L1044.35 668.653C1044.39 660.116 1048.05 645.156 1044.32 637.559C1047.07 632.256 1045.09 577.181 1040.1 572.153C1030.32 562.279 987.251 565.966 972.611 566.038C971.264 637.822 972.666 709.876 972.611 781.691C949.158 782.547 925.35 781.703 901.859 781.691L901.859 399.006Z"/>
	<path fill="#0D0D0D" transform="matrix(0.0964912 0 0 0.0966797 -0.00012207 0)" d="M302.378 396.004L304.257 395.852C422.358 387.409 443.607 528.566 416.448 534.1C326.583 552.413 370.567 496.001 344.962 469.414C329.166 453.012 293.668 452.709 277.545 468.718C259.382 486.754 266.295 535.012 266.325 558.209L266.213 674.381C266.333 705.553 280.242 723.537 312.786 722.974C378.103 721.847 347.126 653.783 362.469 638.162L363.071 637.559C372.811 631.715 415.66 632.817 421.989 638C429.297 643.981 426.786 659.352 426.886 667.594C427.273 699.454 422.542 724.656 401.739 750.018C363.648 796.451 280.377 800.636 235.033 763.084C182.169 719.305 195.199 645.583 195.119 584.876L195.001 529.82C194.883 457.892 219.439 402.855 302.378 396.004Z"/>
	<path fill="#D97904" transform="matrix(0.0964912 0 0 0.0966797 -0.00012207 0)" d="M1025.51 301.754C1034.41 279.758 1043.57 245.859 1067.48 235.865C1094.06 224.754 1236.25 222.951 1262.22 234.008C1278.96 241.134 1314.73 297.221 1314.75 312.913C1345.66 323.587 1347.31 372.87 1339.32 397.207C1337.55 402.612 1332.66 409.586 1329.74 417.156C1333.02 406.488 1314.4 418.307 1308.73 419.071C1297 420.649 1269.81 416.188 1260.85 420.316L1259.38 423.313C1263.42 414.269 1224.81 419.253 1217.09 419.265L1132.54 419.193C1122.53 419.171 1108.78 417.417 1099.36 419.251C1097.31 418.281 1037.67 416.089 1033.11 417.156C1037.38 390.697 994.935 373.938 1036.64 314.804C1037.05 314.208 1037.21 313.615 1037.34 312.913C1025.8 312.919 990.969 315.67 983.282 308.324C968.825 294.506 1009.52 268.448 1025.51 301.754ZM1144.29 244.197C1121.98 246.236 1079.21 243.002 1064.15 261.365C1054.26 273.413 1047.5 304.41 1040.74 310.331C1088.92 306.7 1139.16 298.299 1187.57 301.754C1222.5 301.531 1258.04 303.035 1292.24 310.331C1293.54 300.902 1277.52 268.615 1271.53 260.553C1253.25 235.951 1171.62 244.175 1144.29 244.197ZM1234.07 354.198C1198.71 359.397 1164.24 356.077 1129.02 358.188C1134.42 362.482 1139.15 368.17 1144.29 372.908C1159.56 385.426 1183.93 381.637 1202.4 379.791C1229.18 377.112 1243.62 353.43 1234.07 354.198ZM1305.05 331.007C1281.57 338.175 1233.49 377.393 1267.66 373.261L1270.46 372.908C1282.7 371.406 1313.17 369.016 1320.79 358.884C1327.83 349.513 1320.38 328.122 1305.05 331.007ZM1053.33 331.007C1027.25 368.507 1090.83 370.915 1110.47 372.908C1135.73 376.655 1077.03 324.638 1053.33 331.007Z"/>
	<path fill="#0D0D0D" transform="matrix(0.0964912 0 0 0.0966797 -0.00012207 0)" d="M1403.34 399.006C1406.42 398.35 1445.98 397.297 1453.87 397.482C1483.35 398.17 1474.43 445.892 1474.66 464.793C1474.77 474.661 1478.76 496.925 1474.8 505.169C1532.1 505.34 1616.17 493.499 1627.16 571.433C1631.75 604.021 1640.3 736.844 1601.98 758.745C1594.25 788.963 1486.56 784.087 1464.88 784.027C1414.74 783.885 1403.28 789.97 1403.29 738.462L1403.49 427.411C1403.61 418.026 1404.99 408.312 1403.34 399.006ZM1474.8 566.038C1475.9 578.723 1474.82 592.084 1474.8 604.861L1474.82 685.608C1474.84 692.203 1476.7 716.552 1474.8 720.57C1491.26 720.658 1535.54 724.062 1547.44 714.289L1548.03 712.897C1564.66 703.468 1558.48 605.976 1556.62 587.875C1553.27 555.346 1500.18 565.354 1474.8 566.038Z"/>
</svg>
